<svg width="100" height="100" viewBox="0 0 100 100" fill="none" xmlns="http://www.w3.org/2000/svg">
  <!-- Hexagonal Hive Background -->
  <path d="M50 5L87.5 27.5V72.5L50 95L12.5 72.5V27.5L50 5Z" fill="#FFCC00" stroke="#000000" stroke-width="2"/>
  
  <!-- Inner Hexagon -->
  <path d="M50 20L75 35V65L50 80L25 65V35L50 20Z" fill="#FFFFFF" stroke="#000000" stroke-width="1.5"/>
  
  <!-- Bee Stripes -->
  <path d="M37 43H63V47H37V43Z" fill="#000000"/>
  <path d="M37 53H63V57H37V53Z" fill="#000000"/>
  
  <!-- Letter K -->
  <path d="M30 35L30 65M30 50L45 35M30 50L45 65" stroke="#000000" stroke-width="4" stroke-linecap="round" stroke-linejoin="round"/>
  
  <!-- Letter H -->
  <path d="M55 35L55 65M70 35L70 65M55 50L70 50" stroke="#000000" stroke-width="4" stroke-linecap="round" stroke-linejoin="round"/>
  
  <!-- Small Bee -->
  <circle cx="87" cy="15" r="6" fill="#FFCC00" stroke="#000000" stroke-width="1"/>
  <path d="M84 15H90" stroke="#000000" stroke-width="1"/>
  <path d="M85 13L89 17" stroke="#000000" stroke-width="0.75"/>
  <path d="M89 13L85 17" stroke="#000000" stroke-width="0.75"/>
  <path d="M92 15C92 15 95 14 95 17" stroke="#000000" stroke-width="1"/>

  <!-- Text -->
  <text x="50" y="95" font-family="Inter, sans-serif" font-size="8" font-weight="700" text-anchor="middle" fill="#000000">KODEHIVEPH</text>
</svg>
